# xmcd
#
# Track frame offsets:
#	150
#	17295
#	30302
#	45485
#	57207
#	71322
#	85820
#	97277
#	111547
#	124287
#	137342
#	149347
#
# Disc length: 2183 seconds
#
# Revision: 0
# Processed by: cddbd v1.5.2PL0 Copyright (c) Steve Scherf et al.
# Submitted via: EasyCDDAExtractor 16.0.6.1
#
DISCID=9d08850c
DTITLE=Παπαδάκης Μάνος - Τα καλύτερα του Μάνου Παπαδάκη
DYEAR=1900
DGENRE=Λαϊκή
TTITLE0=Παπαδάκης Μάνος - Θα τα κάψω τα ρημάδια τα λεφτά μου
TTITLE1=Παπαδάκης Μάνος - Ένας αητός
TTITLE2=Παπαδάκης Μάνος - Μιά δεκάρα
TTITLE3=Παπαδάκης Μάνος - Σε λυπάμαι
TTITLE4=Παπαδάκης Μάνος-Ναλμπάντη Μαρία - Η φωτιά
TTITLE5=Παπαδάκης Μάνος-Ναλμπάντη Μαρία - Μαύρος καπνός
TTITLE6=Παπαδάκης Μάνος-Ναλμπάντη Μαρία - Ήσουν ποτάμι σιγανό
TTITLE7=Παπαδάκης Μάνος-Ναλμπάντη Μαρία - Εγώ περήφανα μιλάω
TTITLE8=Παπαδάκης Μάνος - Παιδικά καράβια
TTITLE9=Παπαδάκης Μάνος - Πονηρός Πολύδωρος
TTITLE10=Παπαδάκης Μάνος - Τα λεφτά
TTITLE11=Παπαδάκης Μάνος - Η ζυγαριά
EXTD=
EXTT0=
EXTT1=
EXTT2=
EXTT3=
EXTT4=
EXTT5=
EXTT6=
EXTT7=
EXTT8=
EXTT9=
EXTT10=
EXTT11=
PLAYORDER=
